<svg xmlns="http://www.w3.org/2000/svg" viewBox="0 0 139.66 115"><title>logo-gf</title><g><path d="M111.42,61.05h9.93v9.37h8.38V61.05h9.93V52.82h-9.93V43.17h-8.24v9.51h-9.93ZM81.18,36.64h24.56v7.94H90.41v8.24h15.33v8.23H90.41v17.6H81.18ZM73,45.15l-7.52,4.26c-.5-.63-1-1.24-1.56-1.84a13.41,13.41,0,0,0-9.65-3.69,12.79,12.79,0,0,0-8.09,2.83,13.07,13.07,0,0,0-4.4,10.65A14.65,14.65,0,0,0,44,65.87a11.92,11.92,0,0,0,10.5,5.54c4,0,7.1-1.42,9.23-4.26A14.52,14.52,0,0,0,65.57,64H54.22V56.22H75.51c0,6.25-1.42,11.22-4.12,14.91-4.11,5.67-9.93,8.37-17.31,8.37A20.65,20.65,0,0,1,49,78.93,19.62,19.62,0,0,1,36.33,70.7a22.53,22.53,0,0,1-3.69-13.34,21.6,21.6,0,0,1,8.52-18,23,23,0,0,1,13.2-3.83,22.72,22.72,0,0,1,16.61,7l2,2.69m-63-2v9.65H0v8.23H9.94v9.37h8.51V61.05h9.94V52.82H18.45V43.17Z" fill="#0069a0"/></g></svg>